
<region>
sample=../Samples/snaremic/ride/snaremic_ride_ride_vl1_rr1.flac
hivel=42
seq_length=4
amp_velcurve_42=1

<region>
sample=../Samples/snaremic/ride/snaremic_ride_ride_vl1_rr2.flac
hivel=42
seq_length=4
seq_position=2
amp_velcurve_42=1

<region>
sample=../Samples/snaremic/ride/snaremic_ride_ride_vl1_rr3.flac
hivel=42
seq_length=4
seq_position=3
amp_velcurve_42=1

<region>
sample=../Samples/snaremic/ride/snaremic_ride_ride_vl1_rr4.flac
hivel=42
seq_length=4
seq_position=4
amp_velcurve_42=1

<region>
sample=../Samples/snaremic/ride/snaremic_ride_ride_vl2_rr1.flac
lovel=43
hivel=85
seq_length=4
amp_velcurve_85=1

<region>
sample=../Samples/snaremic/ride/snaremic_ride_ride_vl2_rr2.flac
lovel=43
hivel=85
seq_length=4
seq_position=2
amp_velcurve_85=1

<region>
sample=../Samples/snaremic/ride/snaremic_ride_ride_vl2_rr3.flac
lovel=43
hivel=85
seq_length=4
seq_position=3
amp_velcurve_85=1

<region>
sample=../Samples/snaremic/ride/snaremic_ride_ride_vl2_rr4.flac
lovel=44
hivel=85
seq_length=4
seq_position=4
amp_velcurve_85=1

<region>
sample=../Samples/snaremic/ride/snaremic_ride_ride_vl3_rr1.flac
lovel=86
seq_length=4
amp_velcurve_95=1

<region>
sample=../Samples/snaremic/ride/snaremic_ride_ride_vl3_rr2.flac
lovel=86
seq_length=4
seq_position=2
amp_velcurve_95=1

<region>
sample=../Samples/snaremic/ride/snaremic_ride_ride_vl3_rr3.flac
lovel=86
seq_length=4
seq_position=3
amp_velcurve_95=1

<region>
sample=../Samples/snaremic/ride/snaremic_ride_ride_vl3_rr4.flac
lovel=86
seq_length=4
seq_position=4
